# xmcd
#
# Track frame offsets: 
#        182
#        31100
#        56895
#        87275
#        105332
#        128822
#        146825
#        167047
#        196535
#        226232
#        247037
#        279865
#
# Disc length: 4104 seconds
#
# Revision: 2
# Processed by: cddbd v1.5.2PL0 Copyright (c) Steve Scherf et al.
# Submitted via: ExactAudioCopy v1.3
#
DISCID=9910060c
DTITLE=Chuckii Booker - Chuckii
DYEAR=1989
DGENRE=Funk
TTITLE0=(Don't U KNow) I love You
TTITLE1=Turned Away
TTITLE2=Res Q Me
TTITLE3=Hotel Happiness
TTITLE4=Heavenly Father
TTITLE5=Touch
TTITLE6=That's My Honey
TTITLE7=Let Me Love U
TTITLE8=Oh Lover
TTITLE9=Keep Your Guard Up
TTITLE10=Turned Away (Extented 12" Version)
TTITLE11=Turned Away (Chuckii's Mix)
EXTD=
EXTT0=
EXTT1=
EXTT2=
EXTT3=
EXTT4=
EXTT5=
EXTT6=
EXTT7=
EXTT8=
EXTT9=
EXTT10=
EXTT11=
PLAYORDER=
